# xmcd
#
# Track frame offsets: 
#        150
#        20363
#        40142
#        72370
#        92067
#        104323
#        124192
#        142163
#        157314
#        174910
#        198498
#        221907
#
# Disc length: 3238 seconds
#
# Revision: 6
# Processed by: cddbd v1.5.2PL0 Copyright (c) Steve Scherf et al.
# Submitted via: ExactAudioCopyFreeDBPlugin 1.0
#
DISCID=b30ca40c
DTITLE=Ana Popovic - Hush!
DYEAR=2001
DGENRE=Blues
TTITLE0=Love Fever
TTITLE1=Mended
TTITLE2=Hometown
TTITLE3=I Won't Let You Down
TTITLE4=The Hustle Is On
TTITLE5=Downtown
TTITLE6=How Lonely Can A Woman Get
TTITLE7=Walk Away
TTITLE8=Girl Of Many Words
TTITLE9=Minute 'Till Dawn
TTITLE10=Bring Your Fine Self Home
TTITLE11=How The Mighty Have Fallen
EXTD=YEAR: 2001 ID3G: 0
EXTT0=
EXTT1=
EXTT2=
EXTT3=
EXTT4=
EXTT5=
EXTT6=
EXTT7=
EXTT8=
EXTT9=
EXTT10=
EXTT11=
PLAYORDER=
